<svg id="Capa_1" data-name="Capa 1" xmlns="http://www.w3.org/2000/svg" viewBox="0 0 109.25 123.54"><defs><style>.cls-1{fill:#d31919;}.cls-2{fill:#fffdfd;}</style></defs><path class="cls-1" d="M106.59,46.85a2.62,2.62,0,0,0,.46-.19l0,0a3.81,3.81,0,0,0,1.2-.94,4,4,0,0,0-.54-5.76l-3.78-3-9-7.19a1.62,1.62,0,0,1-.4-1.18c0-3.14,0-6.28,0-9.42a1.21,1.21,0,0,0-.17-.88,1.82,1.82,0,0,0-.93-.12H81.14a2.06,2.06,0,0,1-1.38-.48q-10-8-20.09-16A6.37,6.37,0,0,0,55.8,0c-.26,0-2,0-2.32,0A8.49,8.49,0,0,0,49.64,1.8C45,5.55,40.27,9.27,35.59,13L19.88,25.53,5.08,37.33l-3.63,2.9a3.86,3.86,0,0,0-.52,5.53A3.8,3.8,0,0,0,4,47.12h9.66v.67c0,2.5,0,5,0,7.49,0,1.58.1,3.17.21,4.75a29.2,29.2,0,0,0,1,5.5,30.81,30.81,0,0,0,6.78,12.68,35.49,35.49,0,0,0,10.31,7.94A47.38,47.38,0,0,0,52,91.29c1.64.07,3.29,0,4.94-.06a44.23,44.23,0,0,0,7-.86,45.37,45.37,0,0,0,10.84-3.52,36,36,0,0,0,11.54-8.47,31.52,31.52,0,0,0,8-20.46c.13-3.38,0-6.76,0-10.14v-.65h10.64a4.94,4.94,0,0,0,.87-.08l.27-.07A2.64,2.64,0,0,0,106.59,46.85Z"/><path class="cls-1" d="M31.29,117V110h3.22V123.3h-2.3L26,115.88c0,.5,0,.88,0,1.26v6.17H22.74V110h2.37L31.18,117Z"/><path class="cls-1" d="M13.46,118.23v2.08h6.33l-.73,3H10V110h9.74l-.73,3H13.47c0,.41,0,.78,0,1.15v1.19a15.14,15.14,0,0,0,1.64,0h3.37l-.15,2.91H13.46Z"/><path class="cls-1" d="M73.58,122.78l.15-3c.81.22,1.55.45,2.31.63a6.92,6.92,0,0,0,2.27.18,2.81,2.81,0,0,0,.81-.19.9.9,0,0,0,.13-1.63,8.75,8.75,0,0,0-1-.47c-.7-.25-1.42-.45-2.1-.74a8.14,8.14,0,0,1-1.29-.77,2.28,2.28,0,0,1-.46-.47,4.45,4.45,0,0,1-.2-4.61,3.59,3.59,0,0,1,1.71-1.37A6.23,6.23,0,0,1,78,109.8a15.69,15.69,0,0,1,4.51.32v3l-2.47-.35a5.9,5.9,0,0,0-1.92.06,1.12,1.12,0,0,0-.85.51c-.09.64,0,.85.55,1.1s1,.38,1.52.57,1.29.43,1.91.71a3.21,3.21,0,0,1,2,3.18,4.27,4.27,0,0,1-1.52,3.57,4.41,4.41,0,0,1-2.13.94,13,13,0,0,1-5.88-.5A.88.88,0,0,1,73.58,122.78Z"/><path class="cls-1" d="M54.09,120.22l.25,2.93c-.38.07-.74.17-1.11.22a12.44,12.44,0,0,1-5-.17,6.07,6.07,0,0,1-4.53-5.14,8.2,8.2,0,0,1,.2-3.52A6.35,6.35,0,0,1,48,110.19a12,12,0,0,1,6.22,0L54,113.09c-.56-.08-1.09-.17-1.62-.22a6.74,6.74,0,0,0-2.86.17,3.35,3.35,0,0,0-2.35,3.11,7.17,7.17,0,0,0,.13,1.73,3.25,3.25,0,0,0,3,2.56A14.8,14.8,0,0,0,54.09,120.22Z"/><path class="cls-1" d="M16.18,98.28h1.43v8.06c-.25.13-.54,0-.81.06H16v-4.17a35.43,35.43,0,0,0-2,3.17H12.68l-1.92-3.32a3.06,3.06,0,0,0-.12,1v3.26H9V98.29h1.48l2.86,5.22Z"/><path class="cls-1" d="M33.68,98.27h1.57c.13.44.18,6.17.07,8.08a6.1,6.1,0,0,1-1.15.06L30,101.24v5.12H28.33V98.29h1.23l4.12,5Z"/><path class="cls-1" d="M73.18,106.38h-5.3v-8.1h5.67l-.4,1.49H69.62v1.89h3.14l-.1,1.51h-3v1.69c.63,0,1.27,0,1.9,0h2A5.79,5.79,0,0,1,73.18,106.38Z"/><path class="cls-1" d="M27.18,106.38H21.89v-8.1h5.62a6.2,6.2,0,0,1-.38,1.48h-3.5v1.91l3.13,0-.09,1.43c-.51.06-1,0-1.54,0H23.61v1.7h4Z"/><path class="cls-1" d="M99.66,98.39V99.9c-.35-.06-.65-.14-1-.17-.52,0-1-.07-1.56-.07a1,1,0,0,0-.51.14.64.64,0,0,0-.09,1.16,4.3,4.3,0,0,0,.87.4c.48.19,1,.33,1.46.55a2.27,2.27,0,0,1,.75,3.55,2.68,2.68,0,0,1-1.51.93,6.71,6.71,0,0,1-3.8-.37l.13-1.53a10.39,10.39,0,0,0,1.4.41,12.47,12.47,0,0,0,1.62.08,1,1,0,0,0,.45-.15.8.8,0,0,0,0-1.44c-.4-.18-.83-.31-1.24-.48a10.76,10.76,0,0,1-1.1-.48,2.12,2.12,0,0,1-1.12-2.1,2,2,0,0,1,1.28-1.82,4.19,4.19,0,0,1,1.51-.37A8.11,8.11,0,0,1,99.66,98.39Z"/><path class="cls-1" d="M79.38,98.37l-.09,1.54a5.66,5.66,0,0,0-2.88-.15,1.64,1.64,0,0,0-.46.29c-.06.68,0,.85.57,1.08s.83.3,1.24.46.85.37,1.25.59a1.62,1.62,0,0,1,.77,1.23,2.5,2.5,0,0,1-1.94,3A6.17,6.17,0,0,1,74,106l.13-1.5a6,6,0,0,0,2.68.55,2.3,2.3,0,0,0,.7-.15.77.77,0,0,0,.51-.74.7.7,0,0,0-.49-.75c-.41-.16-.83-.29-1.24-.47s-.87-.39-1.29-.62A2.21,2.21,0,0,1,75,98.69a4.3,4.3,0,0,1,2-.56,3.47,3.47,0,0,1,.72,0C78.28,98.21,78.79,98.29,79.38,98.37Z"/><path class="cls-1" d="M64.22,98.39v1.5a9.43,9.43,0,0,0-1-.15,14.71,14.71,0,0,0-1.49-.09,1.08,1.08,0,0,0-.9.4c-.1.65,0,.84.56,1.1.27.12.56.21.84.32s.69.23,1,.37a2.08,2.08,0,0,1,1.32,2.78,2.41,2.41,0,0,1-2,1.78,6.32,6.32,0,0,1-3.71-.41l.11-1.51c.34.11.62.19.89.29a4.57,4.57,0,0,0,1.9.23,1.76,1.76,0,0,0,.64-.15.8.8,0,0,0,.48-.77.7.7,0,0,0-.48-.7c-.41-.16-.83-.3-1.24-.47s-.84-.36-1.25-.58a2.23,2.23,0,0,1,0-3.63,4.13,4.13,0,0,1,2-.57A8.22,8.22,0,0,1,64.22,98.39Z"/><path class="cls-1" d="M35.92,99.79v-1.5h7l-.41,1.45h-2.2l-.08.08s0,0,0,.05v6.49H38.47V99.79Z"/><path class="cls-1" d="M80,99.8V98.29h7l-.39,1.47H84.26v6.61H82.51V99.8Z"/><path class="cls-1" d="M20.59,106.37h-1.7V98.28h1.7Z"/><path class="cls-1" d="M89.14,97.62l-.57-1,2.49-1.52.74,1.3Z"/><path class="cls-2" d="M77.66,58.17l1,2.59a29.06,29.06,0,0,1-48.22.07l1.07-2.73.35.36a35.37,35.37,0,0,0,6.9,5.9A29.48,29.48,0,0,0,50,68.73a26.62,26.62,0,0,0,5.64.36,29.17,29.17,0,0,0,11.08-2.71,33.42,33.42,0,0,0,10.62-8,2.08,2.08,0,0,1,.21-.21Z"/><path class="cls-2" d="M59,39.9V26.76c.09,0,.17,0,.24,0,2.09,0,4.18,0,6.27.05a7.22,7.22,0,0,1,2.85.68A4.32,4.32,0,0,1,70.7,30a9,9,0,0,1,0,6.2,5.42,5.42,0,0,1-4.29,3.55,4.85,4.85,0,0,1-.83.11Z"/><path class="cls-2" d="M36.36,26.74h3.43c0,.18,0,.36,0,.53,0,2.36,0,4.71,0,7.06A5.2,5.2,0,0,0,40,35.58a2,2,0,0,0,1.9,1.57h.67a2,2,0,0,0,2-1.8,6.86,6.86,0,0,0,.1-1.2c0-2.25,0-4.5,0-6.76v-.59a17.8,17.8,0,0,1,3.4,0c0,.15,0,.3,0,.46,0,2.53,0,5.07,0,7.6a6.17,6.17,0,0,1-.54,2.69,4.18,4.18,0,0,1-2.65,2.23,8.51,8.51,0,0,1-5.55-.09,4.26,4.26,0,0,1-2.84-3.59,12.61,12.61,0,0,1-.12-1.74c0-2.31,0-4.63,0-6.94Z"/><path class="cls-2" d="M78.16,26.74h3.3q2.6,6.53,5.24,13.15H83l-.77-2.13H77.33l-.81,2.14H72.71Q75.46,33.3,78.16,26.74Z"/><path class="cls-2" d="M33.05,39.72a6.56,6.56,0,0,1-2,.36,10.38,10.38,0,0,1-4.53-.42,5.78,5.78,0,0,1-4-4.65,7.62,7.62,0,0,1,.39-4.5,6.32,6.32,0,0,1,5-3.86,12.87,12.87,0,0,1,4.67.12c.1,0,.18.07.33.12l-.26,2.94a13.15,13.15,0,0,0-3.22-.3,3.64,3.64,0,0,0-2.79,1.31A3.24,3.24,0,0,0,26,32.36,4.73,4.73,0,0,0,26.25,35a3.13,3.13,0,0,0,2.4,2,7.72,7.72,0,0,0,2.4.07l1.75-.2Z"/><path class="cls-2" d="M46.85,42.83c1.53,0,3,0,4.5,0a4.56,4.56,0,0,1,1.39.34,1.7,1.7,0,0,1,1.13,1.3,2.13,2.13,0,0,1-1.14,2.67l.38.17a2.34,2.34,0,0,1,1.39,2.49c-.16,1.39-.85,2.18-2.75,2.38a23,23,0,0,1-2.35.05H46.85Z"/><path class="cls-2" d="M65.07,47.55a4.47,4.47,0,0,1-2,4.06,5,5,0,0,1-3.39.74,4.64,4.64,0,0,1-3-1.38,4.59,4.59,0,0,1-1.27-2.66,5.37,5.37,0,0,1,.35-2.89,4.42,4.42,0,0,1,3.76-2.71,5.39,5.39,0,0,1,2.55.25,4.53,4.53,0,0,1,3,4.11C65.08,47.23,65.07,47.39,65.07,47.55Z"/><path class="cls-2" d="M41.9,42.84v.38c0,1.82,0,3.63,0,5.44a6.47,6.47,0,0,1-.11,1.07,3,3,0,0,1-2.09,2.36,6.15,6.15,0,0,1-3.91,0,3.11,3.11,0,0,1-2.19-3.14c-.06-2,0-3.94,0-5.91,0-.06,0-.11,0-.2H36v.48c0,1.55,0,3.1,0,4.65a6.9,6.9,0,0,0,.08,1,1.54,1.54,0,0,0,1.64,1.3,1.48,1.48,0,0,0,1.63-1.2,4.41,4.41,0,0,0,.1-1c0-1.55,0-3.09,0-4.64v-.64Z"/><path class="cls-2" d="M84.55,52.21H81.93l-.55-1.52H77.89l-.58,1.52H74.59l3.88-9.38h2.35Q82.68,47.48,84.55,52.21Z"/><path class="cls-2" d="M51.74,27.93l1.74,1.19L55.14,28V39.89h-3.4Z"/><path class="cls-2" d="M73.47,50.06l.17,2a6,6,0,0,1-.77.17,8.55,8.55,0,0,1-3.63-.15,4.15,4.15,0,0,1-3-3.19,5.28,5.28,0,0,1,.25-3.42,4.59,4.59,0,0,1,4-2.8,9.13,9.13,0,0,1,2.76.11,3.17,3.17,0,0,1,.4.14l-.17,2c-.83,0-1.6-.14-2.37-.13a2.44,2.44,0,0,0-2.32,1.62,3.58,3.58,0,0,0-.07,1.84,2.25,2.25,0,0,0,2,1.86A21.7,21.7,0,0,0,73,50.11C73.12,50.11,73.27,50.08,73.47,50.06Z"/><path class="cls-2" d="M32.48,42.84a1.39,1.39,0,0,1,0,.32c-.14.58-.3,1.16-.45,1.78H29.58v7.27H27.07V45H24.35V42.84Z"/><path class="cls-2" d="M53.42,22.88a6.26,6.26,0,0,1,.91-.71,1.68,1.68,0,0,1,2,.24,1.81,1.81,0,0,1,.56,2,4.08,4.08,0,0,1-.58,1A11.89,11.89,0,0,1,53.45,28a10.88,10.88,0,0,1-3.26-3.22A1.88,1.88,0,0,1,51.46,22a1.81,1.81,0,0,1,1.65.52A3.57,3.57,0,0,1,53.42,22.88Z"/><path class="cls-1" d="M65.77,110H62.46c-1.84,4.45-3.68,8.88-5.53,13.34h3.86c.28-.74.55-1.45.81-2.16h5c.27.74.53,1.47.79,2.17h3.71Zm-2.95,8.13a18.39,18.39,0,0,1,1.26-3.67,18.26,18.26,0,0,1,1.35,3.67Z"/><path class="cls-1" d="M94,110H90.68q-2.75,6.64-5.53,13.35H89c.28-.74.55-1.46.82-2.15h5c.27.74.52,1.45.78,2.16H99.3Zm-3.06,8.13c.45-1.27.87-2.48,1.3-3.69h.14c.5,1.2.86,2.45,1.31,3.7Z"/><path class="cls-1" d="M49.26,104.84l-1-1.48a2,2,0,0,1,.2-.17,2.75,2.75,0,0,0,1.22-3.28,2,2,0,0,0-1.93-1.55c-1.16-.11-2.33-.08-3.49-.11H43.5v8.13h1.7v-2.73h1.13c.11.14.22.26.31.39.39.55.78,1.12,1.18,1.67a1.43,1.43,0,0,0,1.08.68c.32,0,.63,0,1,0,.08-.27.16-.5.22-.73s.11-.48.17-.76ZM47,102.08c-.58,0-1.16,0-1.77,0v-2.3c.62,0,1.2,0,1.77,0A1,1,0,0,1,48,100.93,1.08,1.08,0,0,1,47,102.08Z"/><path class="cls-1" d="M90.74,98.28H89.16c-1.12,2.7-2.22,5.38-3.34,8.09h1.91l.61-1.53h3.21c.21.54.42,1,.61,1.54H94C92.89,103.63,91.82,100.92,90.74,98.28Zm-1.82,5,.49-1.36.52-1.41c.41,1,.7,1.84,1,2.77Z"/><path class="cls-1" d="M55.3,98.25H53.74l-3.35,8.13h1.9l.62-1.55h3.2l.61,1.55h1.84C57.46,103.64,56.4,100.93,55.3,98.25Zm-1.82,5c.33-.91.66-1.78,1-2.78.37,1,.7,1.86,1,2.78Z"/><path class="cls-1" d="M62.41,37V29.62a16.3,16.3,0,0,1,3.35.16,2.19,2.19,0,0,1,1.69,1.62,6,6,0,0,1,.08,3.21A2.91,2.91,0,0,1,64.88,37,20.29,20.29,0,0,1,62.41,37Z"/><path class="cls-1" d="M79.79,31.1c.54,1.17.89,2.39,1.35,3.61h-2.7C78.87,33.48,79.26,32.27,79.79,31.1Z"/><path class="cls-1" d="M49.27,50.16V48.38a8.06,8.06,0,0,1,2.09.1.83.83,0,0,1,.48,1.32,1,1,0,0,1-.79.36C50.47,50.17,49.9,50.16,49.27,50.16Z"/><path class="cls-1" d="M49.26,46.56V44.91c.55,0,1.08,0,1.61,0a.63.63,0,0,1,.65.66.74.74,0,0,1-.59.85C50.4,46.52,49.86,46.52,49.26,46.56Z"/><path class="cls-1" d="M57.91,47.61a3.21,3.21,0,0,1,.47-1.86,2.29,2.29,0,0,1,3.55-.17,3.29,3.29,0,0,1,0,3.91,2.24,2.24,0,0,1-3.47-.11A2.66,2.66,0,0,1,57.91,47.61Z"/><path class="cls-1" d="M80.59,48.55H78.66l.91-2.6h.13Z"/></svg>